PathFileType	4	(X/Y/Z)	C:/Users/opensim2020/Desktop/walking_exp_matlab/subject01_walking17_run.trc	
DataRate	CameraRate	NumFrames	NumMarkers	Units	OrigDataRate	OrigDataStartFrame	OrigNumFrames	
100.00	100.00	7	61	mm	100.00	336	87	
Frame#	Time	LTHI			LKNE			RELB			STRN			RWRA			LSHO			RFRM			RUPA			RSHO			RASI			RBHD			RFIN			LFHD			RFHD			CLAV			LHEE			RWRB			LASI			LBHD			LWRA			LTIB			RTHI			LWRB			LTOE			RKNE			C7			LFRM			LFIN			LUPA			LELB			RTIB			RTOE			RBAK			RANK			T10			LPSI			LANK			RHEE			RPSI			*39			*40			*41			*42			*43			*44			*45			*46			*47			*48			*49			*50			*51			*52			*53			*54			*55			*56			*57			*58			*59			*60			
		X1	Y1	Z1	X2	Y2	Z2	X3	Y3	Z3	X4	Y4	Z4	X5	Y5	Z5	X6	Y6	Z6	X7	Y7	Z7	X8	Y8	Z8	X9	Y9	Z9	X10	Y10	Z10	X11	Y11	Z11	X12	Y12	Z12	X13	Y13	Z13	X14	Y14	Z14	X15	Y15	Z15	X16	Y16	Z16	X17	Y17	Z17	X18	Y18	Z18	X19	Y19	Z19	X20	Y20	Z20	X21	Y21	Z21	X22	Y22	Z22	X23	Y23	Z23	X24	Y24	Z24	X25	Y25	Z25	X26	Y26	Z26	X27	Y27	Z27	X28	Y28	Z28	X29	Y29	Z29	X30	Y30	Z30	X31	Y31	Z31	X32	Y32	Z32	X33	Y33	Z33	X34	Y34	Z34	X35	Y35	Z35	X36	Y36	Z36	X37	Y37	Z37	X38	Y38	Z38	X39	Y39	Z39	X40	Y40	Z40	X41	Y41	Z41	X42	Y42	Z42	X43	Y43	Z43	X44	Y44	Z44	X45	Y45	Z45	X46	Y46	Z46	X47	Y47	Z47	X48	Y48	Z48	X49	Y49	Z49	X50	Y50	Z50	X51	Y51	Z51	X52	Y52	Z52	X53	Y53	Z53	X54	Y54	Z54	X55	Y55	Z55	X56	Y56	Z56	X57	Y57	Z57	X58	Y58	Z58	X59	Y59	Z59	X60	Y60	Z60	X61	Y61	Z61	

66	0.650	-589.44287	1110.89771	658.35449	-570.82111	1177.84387	544.90662	-126.53791	925.12030	1030.46057	-427.12659	1050.60645	1165.04285	-271.74323	1126.51331	999.50873	-566.28790	956.14044	1362.27173	-178.13849	1031.17041	974.74835	-145.74017	918.64276	1157.96606	-254.92526	976.15076	1344.09448	-310.07516	953.95251	900.05157	-315.80209	912.22705	1582.09521	-270.07477	1201.55786	972.90558	-456.01944	986.05768	1641.40393	-346.67642	1015.18579	1648.45300	-411.76193	1021.35706	1322.54187	-465.69754	830.28412	292.75180	-241.72954	1135.14868	951.90436	-522.49786	959.89374	910.60510	-431.55463	883.09955	1578.00964	-702.05450	900.69751	931.39728	-575.51434	1047.27527	422.19333	-267.75778	911.39490	559.61084	-743.10461	860.27686	915.30426	-531.78784	932.25702	141.64575	-297.21884	927.03491	400.03860	-397.41232	876.87878	1398.33545	-749.93988	814.69598	1028.45911	-738.46411	925.13141	864.87024	-675.15698	848.36627	1253.09509	-736.23932	764.18164	1144.82422	-293.19604	799.82172	276.79276	-363.34918	767.35913	37.14467	-327.48236	812.19702	1211.91687	-341.73785	660.32629	123.72115	-411.87692	807.93140	1118.84045	-482.88037	779.16266	921.02124	-522.20837	877.03412	279.64520	-388.80219	595.39905	119.37413	-341.52576	775.84039	921.71106	-3102.01563	1972.98816	1023.95270	-3140.80835	2012.47986	1022.10962				-364.60635	993.58423	1678.01624																																																						 
67	0.660	-588.31464	1164.45837	676.33173	-569.85956	1235.15698	564.98798	-132.35429	981.09003	1035.21484	-431.42856	1094.16370	1170.96814	-284.64297	1179.23560	1023.37244	-568.64178	995.69537	1368.50989	-190.31427	1088.36755	987.66034	-147.87726	971.91736	1163.12146	-258.28784	1022.70734	1350.44238	-310.34546	1001.77124	902.78815	-317.55417	958.00671	1587.75977	-287.62463	1255.67383	1000.78394	-457.92145	1032.18408	1646.58679	-348.72943	1061.51465	1652.83667	-415.75848	1065.01343	1327.88220	-463.92752	917.44824	269.45410	-258.15189	1191.07031	974.42249	-522.81488	1006.50427	918.30603	-433.40622	928.36517	1584.48145	-713.01117	928.91663	941.27496	-574.63928	1115.49768	426.68207	-267.08420	944.79816	565.71558	-752.74976	886.91724	927.55627	-530.19598	1035.65161	131.67952	-296.75046	950.81848	402.68420	-398.15125	921.53711	1403.80225	-754.31958	843.17255	1041.74756	-751.64648	950.99847	874.94421	-675.40106	884.00916	1263.47986	-735.37946	795.73987	1157.58472	-292.19922	815.69080	286.54654	-363.02271	768.55035	37.18626	-324.90753	859.12610	1216.89368	-339.02753	671.79681	136.71083	-411.01547	853.78461	1123.11633	-481.49179	825.24957	925.00916	-520.77991	965.04846	262.78897	-386.00754	608.65802	138.23584	-339.59140	822.86041	924.56689	-3102.00366	1973.20459	1023.53516	-3140.70679	2012.58777	1022.16840				-366.87912	1040.42932	1682.85339																																																						 
68	0.670	-588.02972	1215.73193	692.37421	-569.15564	1288.23572	581.61359	-137.87320	1036.28455	1040.80896	-435.98752	1137.68726	1177.54041	-296.68646	1228.70886	1047.15967	-571.01093	1035.55261	1374.99084	-201.71681	1143.43555	1001.48370	-150.24504	1024.50012	1169.69836	-262.18106	1068.65149	1357.03601	-311.80881	1049.70386	906.47717	-319.87549	1003.49567	1593.94312	-304.72995	1306.18921	1029.13928	-460.16034	1078.34204	1652.08887	-351.08496	1107.49121	1657.40918	-419.84271	1108.58496	1333.81396	-462.34076	1006.75262	247.02480	-273.15399	1244.04382	997.64191	-522.86902	1053.33411	925.65247	-435.58456	973.67328	1591.39917	-721.63275	958.87494	952.35327	-574.25861	1181.68726	429.15656	-266.18463	980.82880	571.48547	-759.72778	915.06879	939.99988	-528.38702	1139.52832	123.51425	-294.88599	975.59833	407.38599	-399.07327	966.13190	1409.62366	-757.39844	873.88446	1055.08655	-762.31598	978.84406	885.75067	-675.88562	920.65887	1274.21094	-734.42529	829.14716	1169.96497	-289.43146	835.81091	298.17609	-362.83224	770.02594	36.70173	-322.33127	906.26019	1222.16736	-335.24557	687.04102	150.67316	-409.78870	900.10492	1127.38196	-480.38910	871.64276	929.13330	-519.54419	1054.25208	245.87041	-382.09378	626.82092	157.40503	-337.97055	870.83704	928.01202	-3101.94873	1973.02930	1023.34589	-3140.68140	2012.56018	1021.99011				-369.18350	1087.25012	1688.45020																																																						 
69	0.680	-587.78918	1264.62244	705.54132	-569.13141	1337.46838	593.51611	-142.82095	1090.10474	1047.39600	-440.52283	1181.39868	1184.14417	-308.40073	1275.44775	1070.47961	-572.94574	1076.05591	1381.54578	-211.73566	1196.53198	1016.05725	-152.94398	1076.29968	1176.77832	-266.25278	1114.01953	1363.92651	-312.96909	1097.76831	912.04401	-322.48315	1048.78271	1600.11877	-321.10574	1353.33789	1057.50366	-462.45450	1124.35913	1657.57385	-353.45404	1153.55542	1662.13440	-423.88937	1152.08679	1340.07385	-461.57132	1097.96765	225.91788	-286.55695	1294.37561	1021.58075	-522.97327	1100.83789	932.29474	-438.25696	1019.00201	1598.45264	-728.15247	990.87976	962.74060	-574.72510	1246.60095	428.87637	-265.13654	1018.80682	576.85815	-764.55597	945.41211	951.94818	-526.23999	1243.28601	116.98784	-292.06577	1001.37646	414.26208	-400.68619	1010.11334	1415.14526	-759.27850	906.81519	1067.88879	-770.90839	1009.00348	896.25531	-676.30664	958.70251	1284.78577	-733.45825	864.62054	1181.87256	-286.00290	858.28070	309.88858	-362.24835	772.61200	36.43940	-320.43567	953.10144	1227.63477	-329.56400	708.07007	164.16962	-408.08298	946.62756	1131.45898	-479.36301	918.53766	933.55505	-519.04663	1145.12366	229.18787	-376.91721	651.03735	176.55940	-337.01959	919.38373	932.91022	-3101.87769	1973.13135	1023.44293	-3140.59570	2012.49365	1021.87897				-371.65402	1133.54944	1693.60266																																																						 
70	0.690	-586.69031	1310.21484	713.58716	-569.49847	1383.30115	600.95361	-147.24126	1142.28247	1054.30261	-445.40735	1225.43042	1190.68079	-318.72809	1319.21191	1092.57703	-574.68835	1117.14197	1387.77344	-220.50691	1247.29858	1031.04993	-156.09375	1127.13367	1183.73450	-270.46713	1158.96521	1370.77490	-313.41455	1146.12659	918.50775	-325.50522	1093.62927	1606.01025	-335.91541	1397.28918	1084.43140	-464.94699	1170.28442	1662.81116	-355.97397	1199.30042	1666.65479	-427.95367	1195.44922	1346.46167	-461.59399	1190.04797	206.31154	-298.08435	1341.72461	1045.06848	-523.24176	1148.64868	938.51721	-441.20801	1064.15369	1605.17346	-733.72217	1025.69348	972.97449	-575.88306	1310.44250	426.03076	-264.31403	1057.75354	582.01965	-767.69397	978.33099	962.61395	-524.06244	1345.57068	111.82283	-289.52966	1029.05103	422.61267	-402.59073	1053.66541	1420.14502	-760.44226	941.62695	1079.60913	-777.59192	1041.41895	905.76373	-676.56439	997.77264	1294.75159	-732.64703	901.81354	1192.78040	-281.56439	883.66833	321.85181	-362.34979	776.90601	36.75562	-319.47128	999.49768	1233.28113	-323.17169	733.41589	175.15982	-405.94415	992.86884	1135.68140	-478.42041	966.04089	938.54089	-519.57513	1235.46082	214.55547	-370.56287	679.11487	193.20480	-337.27612	968.35333	938.86298	-3101.96484	1973.04456	1023.43787	-3140.62915	2012.50781	1022.00769				-374.09567	1179.89526	1698.65894																																																						 
71	0.700	-585.50891	1353.79639	716.70520	-570.38184	1427.00708	603.76160	-150.91249	1193.04114	1061.52234	-450.55298	1269.77209	1197.02307	-327.96777	1360.54846	1112.68298	-576.52850	1158.25708	1393.11523	-227.72725	1295.97632	1045.69226	-159.73788	1176.83838	1190.16711	-275.11902	1203.61182	1376.92480	-314.38715	1194.49878	924.58984	-328.53601	1138.33899	1611.14978	-348.99411	1438.49365	1109.14514	-467.59268	1215.84937	1667.37573	-358.66696	1244.66443	1670.60950	-432.15466	1238.68262	1352.56458	-463.45398	1281.24170	189.62448	-308.02945	1386.50928	1066.87781	-523.09393	1196.23755	943.62042	-444.49899	1109.06860	1611.14868	-737.82819	1062.46265	981.60516	-577.05164	1372.94373	420.46185	-263.26822	1096.71472	587.84955	-769.91174	1013.68018	971.16187	-522.05212	1444.48486	107.77075	-287.54474	1058.90210	431.34680	-404.76520	1097.10107	1424.41882	-761.30176	978.06982	1089.63281	-782.68463	1076.78918	914.22321	-676.88263	1037.49475	1303.60168	-731.62323	939.93604	1202.28149	-277.25815	912.06201	332.57220	-362.41772	787.55200	43.85201	-319.40927	1045.72986	1238.62769	-316.48865	760.72357	186.07680	-404.07889	1038.91760	1139.50378	-477.80881	1014.09625	943.74969	-520.58893	1325.84216	200.69728	-361.69046	705.85022	209.92856	-337.50867	1017.57483	945.18335	-3102.02368	1973.07593	1023.58777	-3140.69702	2012.46106	1022.05475				-376.55173	1226.07874	1703.41760																																																						 
72	0.710	-584.59161	1395.77881	715.46289	-571.47491	1469.47729	602.16388	-154.13571	1241.71985	1067.43494	-455.75299	1314.38037	1203.02637	-335.40851	1400.41479	1129.89172	-578.51489	1199.19397	1397.35352	-233.76175	1342.26904	1058.70154	-163.57414	1225.45056	1196.10669	-279.85077	1248.19299	1382.12488	-315.09143	1243.03455	929.82196	-331.92212	1182.69604	1615.01868	-359.97726	1477.64502	1130.38916	-470.25928	1261.13550	1670.76880	-361.54440	1289.57483	1673.52148	-436.49326	1281.76880	1358.00122	-464.67352	1371.72266	176.07631	-316.41806	1428.83264	1085.93286	-523.04974	1244.17920	947.88788	-447.76208	1153.83459	1615.72009	-741.04968	1101.51794	988.82037	-578.84955	1434.51770	412.68628	-262.03708	1135.47937	593.74396	-771.78497	1052.01733	977.96191	-521.01178	1539.64087	105.11571	-286.02829	1091.57471	439.26083	-407.25085	1140.61633	1427.74817	-762.12354	1015.99011	1097.53906	-786.15424	1115.38184	921.11975	-677.42596	1077.72351	1310.90137	-730.88971	978.94055	1210.10193	-274.24728	943.68115	341.36288	-358.59998	804.04407	56.34175	-319.87381	1091.72766	1243.09680	-311.91934	785.31110	200.62114	-403.41083	1086.04895	1142.22375	-476.99805	1061.86670	948.72974	-522.32025	1413.93909	189.07137	-353.70288	732.40466	228.38084	-338.05582	1066.98523	951.63831	-3102.03394	1973.05310	1023.77466	-3140.77295	2012.55359	1022.20062				-379.12244	1271.88611	1707.36328																																																						 
